<svg xmlns="http://www.w3.org/2000/svg" version="1.1" xmlns:xlink="http://www.w3.org/1999/xlink" xmlns:svgjs="http://svgjs.dev/svgjs" width="973" height="1098"><svg id="SvgjsSvg1225" version="1.1" xmlns="http://www.w3.org/2000/svg" viewBox="0 0 973 1098" style="display: block;"><path d="M0 0 C4.49629106 1.79289825 9.00209018 3.56166762 13.50683594 5.33319092 C14.95508255 5.90351044 14.95508255 5.90351044 16.43258667 6.48535156 C27.70416944 10.91615831 39.02316041 15.22238335 50.3422699 19.5298233 C55.62448189 21.54031958 60.90562289 23.55362786 66.18652344 25.56756592 C67.07227365 25.9053368 67.07227365 25.9053368 67.97591782 26.24993134 C81.75200169 31.50450779 95.50773002 36.81154732 109.26074219 42.12615967 C110.45681644 42.58832094 111.65289188 43.05047914 112.84896851 43.51263428 C115.23467744 44.43447269 117.62038313 45.35631948 120.00608826 46.27816772 C120.8878967 46.61889753 120.8878967 46.61889753 121.78751945 46.96651077 C122.97172578 47.42409351 124.15592608 47.88169185 125.34012032 48.33930588 C138.18359101 53.30228603 151.03378178 58.24770985 163.88574219 63.18865967 C164.94965179 63.59770538 166.0135614 64.0067511 167.10971069 64.42819214 C172.45766498 66.48429401 177.80571116 68.54015673 183.15380859 70.59588623 C192.87582894 74.33303137 202.59697931 78.07243852 212.31820679 81.81164551 C217.73651737 83.89574007 223.1548825 85.97969279 228.57324219 88.06365967 C230.73990912 88.89699232 232.90657578 89.73032565 235.07324219 90.56365967 C236.14574219 90.97615967 237.21824219 91.38865967 238.32324219 91.81365967 C300.07324227 115.5636597 300.07324227 115.5636597 303.32299805 116.81356812 C305.49047642 117.64721208 307.65795689 118.48085058 309.82543945 119.31448364 C315.22970422 121.39301971 320.63393294 123.47164942 326.03808594 125.55047607 C336.50313094 129.57597187 346.96864574 133.60023387 357.43537521 137.62134743 C367.82068364 141.61119205 378.20469313 145.60438183 388.58651733 149.60328674 C393.45004312 151.47661411 398.3140282 153.3487119 403.1796875 155.2164917 C407.41902193 156.84394993 411.65653783 158.47604795 415.89257812 160.11206055 C417.39874435 160.69286115 418.90555433 161.27199582 420.41308594 161.84924316 C445.07031674 171.29434812 455.1802121 178.54913564 449.64331055 206.63885498 C449.43592318 207.73788682 449.2285358 208.83691866 449.01486397 209.96925449 C448.44650022 212.97967176 447.86461712 215.98733072 447.2802422 218.99467492 C446.65236679 222.23892998 446.03737264 225.48562935 445.42076111 228.73204041 C444.21707277 235.05865221 443.00183457 241.38299127 441.78273028 247.70664841 C440.35656861 255.1072236 438.94285842 262.51016123 437.52980947 269.91324937 C435.04506526 282.92936327 432.55083278 295.94363816 430.05029297 308.95672607 C427.81879418 320.56985806 425.59194166 332.18385906 423.37353516 343.79949951 C423.24545349 344.47013129 423.11737183 345.14076306 422.9854089 345.83171701 C422.34783229 349.17024468 421.71036573 352.50879335 421.07294655 355.84735107 C415.89014363 382.99191574 410.68324599 410.13179967 405.45854473 437.26832962 C404.04853262 444.59214688 402.64085764 451.91640997 401.234375 459.24090576 C399.49905816 468.27657359 397.75695341 477.31091083 396.00933838 486.34420776 C395.40154484 489.4867072 394.79616535 492.62965363 394.19329834 495.77310181 C390.71051134 513.92220143 365.52228751 610.10000184 365.40156555 558.39717102 C365.3970925 557.67651533 365.39261945 556.95585965 365.38801086 556.21336591 C365.37739367 553.84252692 365.37679906 551.47187347 365.37915039 549.10101318 C365.37921731 548.27061874 365.37928422 547.44022429 365.37935317 546.58466637 C365.40410049 527.75315158 366.36895485 509.00658651 367.51275659 490.21491742 C367.74145115 486.42675711 367.96159576 482.63811603 368.18191475 478.84946078 C368.95355932 465.58596423 369.75793228 452.32453619 370.57324219 439.06365967 C370.66776971 437.52601314 370.66776971 437.52601314 370.76420689 435.95730305 C373.02825496 399.16634937 375.36188889 362.37963927 377.72094727 325.59466553 C378.33611938 316.00137791 378.94532969 306.40772988 379.5481984 296.81366104 C379.8622208 291.82052255 380.17909403 286.82760735 380.50371742 281.83514595 C382.18481164 256.35555832 382.18481164 256.35555832 382.97631836 230.83685303 C383.00062329 229.80602632 383.02492823 228.7751996 383.04996967 227.71313572 C383.04997852 218.93001921 380.61789558 214.25400922 372.22167969 210.72381592 C371.57282806 210.43660172 370.92397644 210.14938751 370.25546265 209.85346985 C361.74130993 206.15541287 353.02821959 202.92550113 344.33624268 199.67501831 C339.38553074 197.82306322 334.44117604 195.95428907 329.49647141 194.08637047 C327.74876105 193.42632232 326.0008054 192.76692667 324.25283813 192.1075592 C311.80714631 187.40976138 299.3976696 182.61889073 286.9908638 177.81953049 C283.98523911 176.65698038 280.97930416 175.49523304 277.97338867 174.33343506 C276.76929189 173.86803769 275.56519542 173.40263954 274.36109924 172.9372406 C273.76598604 172.7072254 273.17087284 172.4772102 272.55772591 172.24022484 C270.75992551 171.54532263 268.96216844 170.85030839 267.16441345 170.1552887 C254.86863482 165.40224379 242.56532224 160.66886967 230.26074219 155.93865967 C229.19728577 155.52979523 228.13382935 155.12093079 227.03814697 154.69967651 C221.68973386 152.6433943 216.34123404 150.58733775 210.99267578 148.53143311 C201.27065543 144.79428796 191.54950506 141.05488082 181.82827759 137.31567383 C176.40996701 135.23157927 170.99160188 133.14762655 165.57324219 131.06365967 C163.40657526 130.23032702 161.23990859 129.39699368 159.07324219 128.56365967 C158.00074219 128.15115967 156.92824219 127.73865967 155.82324219 127.31365967 C135.23990885 119.396993 114.65657552 111.48032633 94.07324219 103.56365967 C93.00089828 103.15122009 91.92855438 102.73878052 90.82371521 102.31384277 C88.65547075 101.47990181 86.48722735 100.64595813 84.31898499 99.81201172 C78.92646708 97.73795275 73.53393137 95.66394011 68.14135742 93.59002686 C58.10398094 89.72972793 48.06677161 85.86899678 38.03018188 82.00665283 C33.9282551 80.4281278 29.82624017 78.8498319 25.72420692 77.27158356 C22.9505861 76.20441906 20.1770288 75.13709018 17.40356445 74.06951904 C11.42400469 71.76786495 5.44359134 69.46845923 -0.53826904 67.17279053 C-2.50590553 66.41725138 -4.47321871 65.66086982 -6.44024658 64.90374756 C-9.35286647 63.78294133 -12.26662535 62.66514592 -15.18066406 61.54803467 C-16.05625473 61.210401 -16.9318454 60.87276733 -17.83396912 60.52490234 C-18.64390823 60.21510437 -19.45384735 59.9053064 -20.28833008 59.58612061 C-20.99401627 59.31507507 -21.69970245 59.04402954 -22.42677307 58.76477051 C-31.58891313 55.55290815 -39.83180586 56.54650362 -48.79003906 59.68475342 C-49.96958412 60.08863281 -49.96958412 60.08863281 -51.17295837 60.50067139 C-59.35247773 63.32958656 -67.42591215 66.42203113 -75.48925781 69.56365967 C-77.14338774 70.20430899 -78.79769135 70.84451 -80.45214844 71.48431396 C-84.10088165 72.89595564 -87.74872681 74.30986114 -91.39599609 75.72528076 C-101.51306864 79.65007025 -111.6380619 83.55439684 -121.76193237 87.46160889 C-124.83401044 88.64728792 -127.9058967 89.83346311 -130.97773838 91.01975441 C-147.56094048 97.42360743 -164.15521505 103.79785161 -180.75952148 110.14682007 C-197.16146225 116.41929915 -213.54646554 122.73493517 -229.92675781 129.06365967 C-247.25006263 135.75672849 -264.58026116 142.43085178 -281.92675781 149.06365967 C-300.97563717 156.34784338 -320.00529554 163.68098154 -339.02902126 171.03052807 C-342.03395326 172.19142203 -345.03893144 173.35219641 -348.04394531 174.51287842 C-348.63890368 174.74268465 -349.23386204 174.97249088 -349.84684944 175.20926094 C-360.49691931 179.32247586 -371.15286991 183.42027989 -381.8106699 187.51341629 C-382.37451358 187.72996243 -382.93835726 187.94650856 -383.51928711 188.1696167 C-384.07938697 188.38472271 -384.63948683 188.59982872 -385.21655941 188.82145309 C-393.12696535 191.85982179 -401.03454826 194.905522 -408.94189453 197.95184326 C-412.39045624 199.28026529 -415.83989243 200.60635527 -419.29052734 201.92938232 C-422.70780071 203.23984832 -426.1225245 204.55669003 -429.53475952 205.88021851 C-430.68548781 206.32529821 -431.83715915 206.76794978 -432.98989868 207.20779419 C-444.69145677 211.67554849 -452.63824438 215.45505141 -452.58006287 229.15293884 C-452.57672555 230.26681261 -452.57672555 230.26681261 -452.57332081 231.40318888 C-452.47416964 241.88828534 -451.75071073 252.34794276 -451.08872902 262.80931461 C-450.89059643 265.95915771 -450.69861913 269.1093773 -450.50584412 272.259552 C-450.17199182 277.70188068 -449.83439969 283.14396655 -449.49418831 288.58590126 C-449.0009877 296.47545441 -448.5138836 304.3653752 -448.02821737 312.25539532 C-447.23804352 325.09008737 -446.4434101 337.92449908 -445.64575195 350.75872803 C-444.87471301 363.164865 -444.1051877 375.57109392 -443.33813477 387.97747803 C-443.29090824 388.74130951 -443.24368171 389.50514099 -443.19502408 390.29211888 C-442.6780689 398.65391546 -442.16152027 407.01573712 -441.64521694 415.37757397 C-441.50771287 417.60444225 -441.37020835 419.8313105 -441.23270298 422.0581787 C-441.14197834 423.52750732 -441.05126097 424.9968364 -440.96055096 426.46616592 C-440.4302927 435.05495671 -439.89883721 443.64367149 -439.36514723 452.23224976 C-439.02994474 457.62668255 -438.69547283 463.02116029 -438.36154253 468.41567198 C-438.16964671 471.51494011 -437.97735789 474.61418252 -437.78396988 477.71335793 C-437.08687883 488.89491587 -436.40175372 500.0761671 -435.83694458 511.26530457 C-435.79650357 512.06340744 -435.75606256 512.86151032 -435.71439606 513.68379813 C-435.40531199 520.0149804 -435.2660967 526.3337097 -435.25878906 532.67303467 C-435.25379646 534.26682953 -435.25379646 534.26682953 -435.248703 535.89282227 C-435.24372372 538.09364397 -435.24129181 540.29447296 -435.24145508 542.49530029 C-435.23923273 545.85154266 -435.22088585 549.20747348 -435.20214844 552.56365967 C-435.19921955 554.7251169 -435.19723138 556.88657566 -435.19628906 559.04803467 C-435.18551079 560.53252106 -435.18551079 560.53252106 -435.17451477 562.04699707 C-435.2987577 599.84043425 -450.46692745 557.50213838 -453.71850586 543.43988037 C-453.86826099 542.79569991 -454.01801612 542.15151944 -454.17230928 541.48781836 C-457.6192583 526.61958443 -460.60598489 511.66756214 -463.51714301 496.68674493 C-464.10858804 493.64767421 -464.7040862 490.60940214 -465.29939514 487.57108635 C-471.87259099 454.01576847 -478.29145487 420.43046254 -484.69149262 386.84176612 C-485.8164624 380.93784697 -486.94240726 375.03411443 -488.06893921 369.13049316 C-488.23175154 368.27726557 -488.39456388 367.42403799 -488.56230992 366.54495502 C-488.8920707 364.81684022 -489.2218329 363.08872569 -489.55159652 361.36061144 C-492.6181236 345.28993358 -495.68166989 329.21868882 -498.74349117 313.1471138 C-500.57871747 303.51398868 -502.4146561 293.88099984 -504.25145924 284.24817526 C-506.88056337 270.46018946 -509.5070177 256.67170185 -512.13119888 242.88277817 C-512.73580358 239.70680466 -513.34090651 236.53092643 -513.94613647 233.35507202 C-514.87339984 228.4888102 -515.79906285 223.62224684 -516.7233696 218.75542259 C-517.05344218 217.01873733 -517.38404162 215.2821521 -517.71522903 213.54567909 C-518.16003729 211.21292396 -518.60286512 208.87980147 -519.04516602 206.54656982 C-519.17217738 205.8829308 -519.29918875 205.21929178 -519.43004894 204.53554249 C-522.84194332 186.47152417 -521.78907359 175.07414742 -503.49316406 167.30194092 C-502.7146962 166.96407059 -501.93622833 166.62620026 -501.13417053 166.27809143 C-492.03487194 162.38254382 -482.77489691 158.89901297 -473.50723267 155.4284668 C-468.55891465 153.57490756 -463.61623998 151.7064297 -458.67352104 149.83800507 C-457.53327686 149.40704066 -456.39296315 148.97626017 -455.25258064 148.54566193 C-443.21894004 144.00160925 -431.22592692 139.3551407 -419.23925781 134.68865967 C-401.99233593 127.97911834 -384.7199495 121.34020137 -367.42675781 114.75115967 C-348.51408815 107.54442912 -329.61807664 100.29612148 -310.73925781 93.00115967 C-309.85045614 92.65773718 -309.85045614 92.65773718 -308.94369888 92.30737686 C-305.96005748 91.15453094 -302.97643534 90.00163515 -299.99281311 88.84873962 C-299.4051372 88.62166006 -298.81746128 88.3945805 -298.21197701 88.16061974 C-297.02798477 87.7031159 -295.8439981 87.24559766 -294.66001701 86.78806496 C-281.8165003 81.82506828 -268.96626385 76.87962702 -256.11425781 71.93865967 C-255.05034821 71.52961395 -253.9864386 71.12056824 -252.89028931 70.6991272 C-247.54233502 68.64302533 -242.19428884 66.58716261 -236.84619141 64.53143311 C-227.12417106 60.79428796 -217.40302069 57.05488082 -207.68179321 53.31567383 C-202.26348263 51.23157927 -196.8451175 49.14762655 -191.42675781 47.06365967 C-189.26009088 46.23032702 -187.09342422 45.39699368 -184.92675781 44.56365967 C-138.74121094 26.79998779 -138.74121094 26.79998779 -92.55566406 9.03631592 C-91.55214905 8.65026184 -90.54863403 8.26420776 -89.51470947 7.86645508 C-87.52743652 7.10229337 -85.53993154 6.33873477 -83.55218506 5.57580566 C-78.76198805 3.73638653 -73.97471682 1.89006766 -69.1949749 0.02366447 C-66.83661157 -0.8967156 -64.47686035 -1.81350682 -62.11699295 -2.73002243 C-60.99254813 -3.16784927 -59.86876154 -3.60737115 -58.74570847 -4.04875565 C-36.58052925 -12.75821888 -21.31159554 -8.50323628 0 0 Z " transform="translate(521.4267578125,9.93634033203125)" style="fill: #04075B;"></path><path d="M0 0 C0.9502002 0.49008545 1.90040039 0.9801709 2.87939453 1.48510742 C11.2585239 5.92041496 19.00309399 11.09040258 26.5456543 16.81933594 C27.89248765 17.83784715 29.25223023 18.83938319 30.62036133 19.82910156 C31.33732178 20.35084961 32.05428223 20.87259766 32.79296875 21.41015625 C33.44418701 21.87945557 34.09540527 22.34875488 34.76635742 22.83227539 C40.51101787 27.70579522 40.58547265 35.13031856 40.56892776 42.08845043 C40.5709804 42.88728182 40.57303303 43.68611321 40.57514787 44.50915161 C40.58083027 47.20258348 40.57935909 49.89596442 40.57794189 52.58940125 C40.58052482 54.5333456 40.58353778 56.47728943 40.5869453 58.42123252 C40.5950271 63.77636509 40.59680552 69.13148427 40.59754276 74.48662221 C40.59920155 79.66483178 40.60551819 84.84303435 40.61162117 90.02124027 C40.62768329 103.8958577 40.63358471 117.77047404 40.63836992 131.64509909 C40.64070567 138.20855254 40.6443083 144.77200512 40.6480653 151.33545789 C40.66090103 173.80220093 40.67162017 196.26894349 40.6750679 218.73569012 C40.67528953 220.14610221 40.67551132 221.5565143 40.67573325 222.96692638 C40.67595389 224.38074852 40.67617438 225.79457066 40.6763947 227.2083928 C40.67683725 230.04477163 40.67728437 232.88115046 40.67773438 235.7175293 C40.67789846 236.77241536 40.67789846 236.77241536 40.67806586 237.84861225 C40.68169651 260.65184074 40.69761672 283.45503745 40.72092474 306.25825377 C40.7455214 330.36628095 40.75924067 354.47428995 40.76043582 378.58233005 C40.76060727 381.22887059 40.7608227 383.87541113 40.76107025 386.52195168 C40.7611539 387.499433 40.7611539 387.499433 40.76123925 388.49666143 C40.76238984 398.98319641 40.77341256 409.46969877 40.78795731 419.95622274 C40.80232454 430.49705401 40.80555802 441.03784347 40.79751733 451.57868185 C40.79345416 457.28908407 40.79456516 462.99939835 40.80857468 468.70978928 C40.8212831 473.93760966 40.82014291 479.16523744 40.80798396 484.39305744 C40.80602167 486.28406983 40.80912991 488.17509572 40.81782833 490.06608912 C40.8289114 492.63840722 40.82143874 495.21004446 40.8094368 497.78234386 C40.82082959 498.88104067 40.82082959 498.88104067 40.83245254 500.00193337 C40.76197439 507.00909263 39.48926104 514.69904236 33.4375 518.9375 C32.63828125 519.50082031 31.8390625 520.06414063 31.015625 520.64453125 C27.55644958 522.79865413 23.99584897 524.703938 20.3828125 526.5859375 C17.10120758 528.44000076 14.11508086 530.54858005 11.0625 532.75 C-3.12559528 542.75536836 -16.2657607 547.62866819 -32.77197266 539.16601562 C-34.8471758 538.10436275 -36.94515559 537.09434238 -39.04296875 536.078125 C-46.96043209 532.15851755 -54.4965381 527.97281085 -61.5 522.5625 C-62.06058105 522.13565918 -62.62116211 521.70881836 -63.19873047 521.26904297 C-71.53011357 514.50961894 -72.72017048 506.55498506 -72.69113445 496.27477551 C-72.69288749 495.48545504 -72.69464053 494.69613458 -72.69644669 493.88289532 C-72.70110439 491.23385826 -72.69864177 488.58487614 -72.69621277 485.93583679 C-72.69808085 484.01904007 -72.70038155 482.10224373 -72.70307809 480.18544799 C-72.70920277 474.91464345 -72.70906171 469.64385476 -72.70788372 464.37304747 C-72.70767988 458.68989862 -72.71319683 453.00675488 -72.71794128 447.3236084 C-72.72646941 436.18804563 -72.72900927 425.05248739 -72.72955366 413.9169217 C-72.73001321 404.86679706 -72.7320716 395.81667414 -72.73525429 386.76655006 C-72.73615183 384.16142601 -72.73704165 381.55630195 -72.73792917 378.9511779 C-72.73815021 378.30353538 -72.73837126 377.65589287 -72.73859901 376.98862482 C-72.74475315 358.77178575 -72.74869958 340.55494727 -72.74825573 322.33810711 C-72.74824015 321.65130015 -72.74822457 320.96449319 -72.74820852 320.2568739 C-72.74812541 316.77585511 -72.74802637 313.29483632 -72.74792381 309.81381752 C-72.74790387 309.12247539 -72.74788392 308.43113326 -72.74786337 307.71884137 C-72.74782294 306.32077916 -72.74778114 304.92271696 -72.74773798 303.52465475 C-72.74712522 281.77269609 -72.75463205 260.02075302 -72.76831055 238.26879883 C-72.78367217 213.83023038 -72.79227673 189.39167218 -72.79134732 164.9530986 C-72.79127269 162.34703147 -72.79122399 159.74096435 -72.79119301 157.13489723 C-72.79118135 156.49321807 -72.7911697 155.8515389 -72.79115769 155.19041492 C-72.79112692 144.86578951 -72.79751177 134.54117764 -72.80612527 124.21655626 C-72.81460343 113.83952431 -72.81541889 103.46251383 -72.80901595 93.0854803 C-72.80574606 87.46419108 -72.80571102 81.84295091 -72.8143692 76.22166634 C-72.8222143 71.07537859 -72.82082313 65.92917894 -72.81208507 60.7828934 C-72.8105457 58.92155173 -72.81238266 57.06020354 -72.81794515 55.19886955 C-72.82501089 52.66672269 -72.81970718 50.13488441 -72.81138897 47.60274792 C-72.81884124 46.52175428 -72.81884124 46.52175428 -72.82644406 45.41892239 C-72.73782676 32.63731833 -68.85061256 26.19284093 -58.625 18.9375 C-57.97112305 18.46602539 -57.31724609 17.99455078 -56.64355469 17.50878906 C-50.63130959 13.21432828 -44.45441892 9.19921897 -38.19384766 5.27880859 C-36.59238528 4.26884714 -35.00360855 3.24162247 -33.41796875 2.20703125 C-31.97357422 1.26923828 -31.97357422 1.26923828 -30.5 0.3125 C-29.66339844 -0.23277344 -28.82679688 -0.77804687 -27.96484375 -1.33984375 C-18.02788426 -7.17275818 -9.76080622 -5.19018663 0 0 Z " transform="translate(503.5625,321.75)" style="fill: #080FA0;"></path><path d="M0 0 C-0.00307663 0.67179291 -0.00615326 1.34358582 -0.00932312 2.03573608 C-0.08057567 8.32538848 -0.6281974 14.49053168 -1.45703125 20.7265625 C-1.57649109 21.64432465 -1.57649109 21.64432465 -1.69836426 22.58062744 C-4.88615598 46.72736293 -9.66548376 70.68936138 -14.12594128 94.62644768 C-14.87360571 98.63961965 -15.6150785 102.65388227 -16.35253906 106.66894531 C-17.23288626 111.45681934 -18.12635987 116.24201457 -19.03308105 121.02496338 C-19.35143811 122.71121721 -19.66611974 124.39817012 -19.97668457 126.08587646 C-23.84887766 147.04734126 -31.42342303 159.77530873 -46.65185547 174.62451172 C-49.75983198 177.66007575 -52.74021486 180.73287493 -55.57421875 184.02734375 C-60.04529007 189.21556838 -64.94488511 193.95021056 -69.828125 198.74609375 C-73.86275615 202.73694952 -77.68424863 206.81808259 -81.38476562 211.11914062 C-85.10845034 215.31396857 -89.18108664 219.17573177 -93.18359375 223.1015625 C-96.44083103 226.32107116 -99.59623931 229.56481151 -102.58203125 233.0390625 C-107.2453987 238.45322153 -112.38079699 243.38419962 -117.47265625 248.390625 C-120.97546052 251.85768637 -124.40216846 255.32960852 -127.61328125 259.0703125 C-132.45749154 264.70700881 -137.82384197 269.82543388 -143.1171875 275.03515625 C-146.74792297 278.63092477 -150.31510482 282.22303206 -153.64453125 286.1015625 C-158.47585511 291.72969007 -163.83450503 296.83592848 -169.1171875 302.03515625 C-172.69590031 305.57940313 -176.21782078 309.11261791 -179.48828125 312.9453125 C-184.86553204 319.20940372 -190.87638128 324.88803236 -196.74707031 330.68359375 C-202.14631639 336.01994242 -207.45199987 341.3387049 -212.3828125 347.1171875 C-216.50442668 351.75971523 -221.03330275 356.03898315 -225.45605469 360.39257812 C-229.64487156 364.52186805 -233.81251752 368.63237553 -237.64453125 373.1015625 C-242.27210825 378.4985961 -247.39371377 383.40939518 -252.45605469 388.39257812 C-257.29348795 393.16126701 -261.9813379 397.97995468 -266.40625 403.140625 C-270.32055544 407.55631338 -274.62013959 411.61338536 -278.828125 415.74609375 C-282.83640337 419.71088266 -286.63583555 423.76301118 -290.31347656 428.03466797 C-293.80840062 431.97973824 -297.54543921 435.68688249 -301.26953125 439.4140625 C-302.05457031 440.21134766 -302.83960938 441.00863281 -303.6484375 441.83007812 C-304.79505859 442.97959961 -304.79505859 442.97959961 -305.96484375 444.15234375 C-306.64820801 444.83981689 -307.33157227 445.52729004 -308.03564453 446.2355957 C-324.74706808 461.02205208 -339.52899378 442.99249647 -350.3828125 430.33984375 C-354.87511377 425.16920188 -359.76869826 420.40516092 -364.64453125 415.6015625 C-370.08355782 410.2431141 -375.42183325 404.88026476 -380.39257812 399.07617188 C-383.79424995 395.24218055 -387.49121624 391.69358028 -391.14453125 388.1015625 C-399.71016959 379.67964293 -399.71016959 379.67964293 -403.61328125 375.1328125 C-407.70655882 370.36989736 -412.17100062 366.00442124 -416.64453125 361.6015625 C-421.75460544 356.57221618 -426.71815617 351.52087633 -431.38867188 346.08007812 C-434.63638841 342.42052657 -438.15508786 339.02858293 -441.64453125 335.6015625 C-445.73622456 331.58306586 -449.78715622 327.58467219 -453.51953125 323.2265625 C-457.9491471 318.07808328 -462.81017471 313.36429895 -467.64453125 308.6015625 C-473.05272523 303.27348992 -478.35643808 297.94090624 -483.29882812 292.16992188 C-487.20886589 287.78819702 -491.46239621 283.72173998 -495.64453125 279.6015625 C-501.08355782 274.2431141 -506.42183325 268.88026476 -511.39257812 263.07617188 C-514.79424995 259.24218055 -518.49121624 255.69358028 -522.14453125 252.1015625 C-530.71016959 243.67964293 -530.71016959 243.67964293 -534.61328125 239.1328125 C-538.70655882 234.36989736 -543.17100062 230.00442124 -547.64453125 225.6015625 C-552.74437256 220.58228741 -557.69636608 215.54110625 -562.35742188 210.11132812 C-565.77454009 206.2684706 -569.4791179 202.70547563 -573.14453125 199.1015625 C-578.09810431 194.23110308 -582.88342405 189.32251642 -587.41113281 184.05322266 C-590.44839023 180.63352747 -593.74913666 177.48341973 -597.01953125 174.2890625 C-610.63123729 160.76660841 -618.39605457 149.21650803 -622.07421875 129.92578125 C-622.32363379 128.66680424 -622.57389148 127.40799393 -622.82492065 126.14933777 C-623.61914379 122.13734877 -624.38444472 118.12013894 -625.14453125 114.1015625 C-625.27146866 113.43312569 -625.39840607 112.76468887 -625.52919006 112.0759964 C-627.36471172 102.40320499 -629.1359509 92.71925246 -630.8861084 83.03070068 C-631.39845385 80.20236131 -631.91607232 77.37499652 -632.43347549 74.54757881 C-634.91622264 60.96733851 -637.32918361 47.38038896 -639.44921875 33.73828125 C-639.68899948 32.20588554 -639.68899948 32.20588554 -639.93362427 30.64253235 C-641.20940398 22.23048294 -642.26729538 13.7458036 -642.33203125 5.2265625 C-642.34621094 4.36289062 -642.36039063 3.49921875 -642.375 2.609375 C-641.0078829 -12.26671273 -632.84072757 -1.09871888 -629.2109375 5.9609375 C-628.69703209 6.94534821 -628.69703209 6.94534821 -628.17274475 7.949646 C-624.62399483 14.89088979 -621.79545071 22.0520038 -619.08203125 29.3515625 C-618.53366167 30.80493117 -617.98507071 32.25821634 -617.4362793 33.71142578 C-610.02222445 53.46077288 -603.23618701 73.44265844 -596.35754395 93.38293457 C-594.9796316 97.37603632 -593.59416204 101.36628672 -592.19393921 105.35162354 C-591.61025178 107.02085721 -591.03691429 108.69369927 -590.46411133 110.36669922 C-586.86373378 120.5872843 -582.40097254 129.57265374 -574.76953125 137.3515625 C-573.980625 138.19074219 -573.980625 138.19074219 -573.17578125 139.046875 C-570.37315044 141.9848986 -567.46820951 144.72368303 -564.38671875 147.3671875 C-558.71322124 152.25893062 -553.53410034 157.65350365 -548.28076172 162.98583984 C-541.9542393 169.41994309 -541.9542393 169.41994309 -535.26953125 175.4765625 C-528.80770289 181.0106056 -522.963921 187.22864239 -516.98974609 193.27685547 C-511.52593797 198.80225503 -506.0917696 204.25143169 -500.17382812 209.29492188 C-495.11812681 213.79590716 -490.45847301 218.74031089 -485.70800781 223.55859375 C-479.10829801 230.27224052 -479.10829801 230.27224052 -472.14453125 236.6015625 C-466.33439954 241.57153259 -461.07184375 247.11818368 -455.70800781 252.55859375 C-449.10829801 259.27224052 -449.10829801 259.27224052 -442.14453125 265.6015625 C-436.33439954 270.57153259 -431.07184375 276.11818368 -425.70800781 281.55859375 C-420.65741393 286.67469021 -415.5995805 291.65967974 -410.1328125 296.3359375 C-405.25873725 300.66419293 -400.78123955 305.43055712 -396.2109375 310.07421875 C-392.67699932 313.64252262 -389.15560858 317.15546746 -385.33203125 320.4140625 C-378.85368861 325.975232 -372.98524012 332.20705907 -366.98974609 338.27685547 C-361.45696708 343.8720034 -355.95361805 349.39823904 -349.95947266 354.50488281 C-345.98978348 357.99718403 -342.37418786 361.87299242 -338.70117188 365.671875 C-325.34281902 379.26702869 -317.14955669 378.606574 -304.00732422 364.96459961 C-302.27269647 363.22974452 -300.48641378 361.64880257 -298.61328125 360.06640625 C-293.18472818 355.3513808 -288.18942633 350.21847852 -283.14453125 345.1015625 C-272.6379614 334.44500083 -272.6379614 334.44500083 -268.20703125 330.6640625 C-262.53469046 325.81195836 -257.38472604 320.40968574 -252.14453125 315.1015625 C-246.32640304 309.20801411 -240.55754001 303.3672084 -234.25390625 297.98828125 C-229.33635576 293.58980554 -224.77803029 288.79512542 -220.14453125 284.1015625 C-208.46047019 272.26604139 -208.46047019 272.26604139 -202.12890625 266.86328125 C-197.94302501 263.14707566 -194.06988053 259.08926604 -190.14453125 255.1015625 C-180.69991412 245.50691741 -180.69991412 245.50691741 -176.30078125 241.7578125 C-170.42282163 236.71787523 -165.08177708 231.10619231 -159.64453125 225.6015625 C-147.39912109 213.20439453 -147.39912109 213.20439453 -141.11132812 207.84570312 C-136.92977698 204.13753513 -133.06386439 200.08315433 -129.14453125 196.1015625 C-119.70205935 186.50909672 -119.70205935 186.50909672 -115.20703125 182.6640625 C-109.89481134 178.10920728 -105.05382855 173.08094494 -100.14453125 168.1015625 C-94.60891787 162.48692269 -89.09748597 156.94803535 -83.10595703 151.81396484 C-79.2961337 148.48783827 -75.69069344 144.95538748 -72.08203125 141.4140625 C-71.31826172 140.68767578 -70.55449219 139.96128906 -69.76757812 139.21289062 C-60.54924291 130.13649727 -55.60391456 119.82965892 -51.61328125 107.68359375 C-51.21706159 106.51144076 -50.81954855 105.3397243 -50.42085266 104.16841125 C-49.58199692 101.69720462 -48.75062741 99.22366948 -47.92544556 96.74786377 C-45.97184074 90.88984789 -43.97406081 85.04682279 -41.98151588 79.20196533 C-41.31304747 77.23988818 -40.64600035 75.27733225 -39.97917175 73.31469727 C-35.01468061 58.71708454 0.13428557 -24.48377527 0 0 Z " transform="translate(808.14453125,645.8984375)" style="fill: #04075B;"></path><path d="M0 0 C0.73710205 0.35610352 1.4742041 0.71220703 2.23364258 1.07910156 C8.07823265 4.00295715 13.33147107 7.51490238 18.62036133 11.33276367 C25.11918736 15.95262088 32.04578342 19.61672281 39.08129883 23.34667969 C44.09515668 26.02874337 48.8220813 28.78483316 53.375 32.1875 C59.12148562 36.45111581 65.39360633 39.50244143 71.8125 42.625 C82.35036181 47.75137358 92.39703583 53.33401096 101.98535156 60.08544922 C108.79575034 64.81068505 116.0906899 68.32070677 123.55615234 71.859375 C136.88239599 78.20187416 153.08891135 86.24964649 153.14044189 103.05708313 C153.14615204 104.17161865 153.15186218 105.28615417 153.15774536 106.4344635 C153.15899068 107.67025746 153.16011579 108.90605154 153.16113281 110.1418457 C153.16576199 111.4428827 153.17078679 112.74391833 153.17617798 114.04495239 C153.18929479 117.58018832 153.19574558 121.11540525 153.20018864 124.65066171 C153.20312066 126.8600129 153.20722573 129.06935892 153.21169281 131.2787075 C153.22536616 138.19318026 153.23503348 145.10764116 153.2388947 152.0221265 C153.24337452 160.00025251 153.26091942 167.97820711 153.2898953 175.95628101 C153.31152228 182.1253899 153.32159953 188.2944506 153.32293582 194.463597 C153.32398317 198.14705094 153.32987587 201.83034372 153.34775543 205.51375771 C153.36425371 208.98003806 153.36638329 212.44603641 153.35761642 215.91234207 C153.35684697 217.18213978 153.36117679 218.45195275 153.37107468 219.72171211 C153.49158692 236.14967449 146.60294054 241.24275021 132.47164917 248.24060059 C125.0400862 251.9220039 117.67865143 255.56927318 110.9375 260.4375 C97.83660326 269.53106362 86.15367626 260.50827555 74.62207031 252.75976562 C72.39458543 251.28729217 70.1114825 249.91999443 67.8125 248.5625 C67.03261719 248.09328125 66.25273438 247.6240625 65.44921875 247.140625 C63.67326988 246.08695199 61.88202695 245.05892078 60.08203125 244.046875 C45.28027519 235.36526379 46.87388011 222.67697625 46.859375 206.93359375 C46.84329058 204.50843438 46.8215176 202.08332666 46.80078125 199.65820312 C46.77049101 195.8841276 46.74768608 192.11039064 46.74951172 188.33618164 C46.75030541 185.249694 46.72668556 182.16418909 46.6876297 179.07795906 C46.67233289 177.36001808 46.68242435 175.6419096 46.69329834 173.92393494 C46.54318648 164.18604935 44.09930112 155.16492193 34.9375 150.5 C34.37313232 150.18232666 33.80876465 149.86465332 33.22729492 149.53735352 C32.06427134 148.88456173 30.89501805 148.24274176 29.71972656 147.61230469 C27.04855731 146.17584967 24.43451428 144.6494269 21.8125 143.125 C20.8225 142.55394531 19.8325 141.98289062 18.8125 141.39453125 C16.20392341 139.81127018 13.7700082 138.11827038 11.3125 136.3125 C7.56457358 133.59281963 3.71860917 131.46945438 -0.40527344 129.3972168 C-14.6657734 122.22882898 -20.31630822 115.51352211 -20.2746582 99.37109375 C-20.27976913 98.34597687 -20.28488007 97.32085999 -20.29014587 96.26467896 C-20.30401718 92.88472617 -20.30308715 89.50497782 -20.30078125 86.125 C-20.30309194 84.36649686 -20.30659574 82.60799873 -20.310188 80.8494978 C-20.32126126 75.32510016 -20.32173249 69.80077054 -20.31567383 64.27636719 C-20.30963104 58.5879401 -20.32195754 52.89976017 -20.3432439 47.21137524 C-20.36088506 42.31606826 -20.36685744 37.42083978 -20.36360615 32.5255022 C-20.3617976 29.6066465 -20.36570905 26.68810792 -20.37832069 23.76925659 C-20.39066189 20.51394609 -20.38390729 17.25920764 -20.37231445 14.00390625 C-20.37995819 13.04372589 -20.38760193 12.08354553 -20.39547729 11.0942688 C-20.27851925 -3.77040143 -12.57829331 -6.2557293 0 0 Z " transform="translate(634,255.3125)" style="fill: #04075B;"></path><path d="M0 0 C0.00571014 0.90273651 0.01142029 1.80547302 0.01730347 2.73556519 C0.01898026 4.21771011 0.01898026 4.21771011 0.02069092 5.72979736 C0.02565582 6.77237701 0.03062073 7.81495667 0.03573608 8.88912964 C0.04784049 11.74884156 0.05530209 14.6085126 0.05974674 17.46824551 C0.06268098 19.25682069 0.06678651 21.04538951 0.07125092 22.83396149 C0.08492324 28.43548768 0.09459043 34.03699927 0.09845281 39.63854098 C0.10292905 46.09417102 0.1204576 52.54958884 0.1494534 59.00515437 C0.17111176 64.00146563 0.18115934 68.99771738 0.18249393 73.99407506 C0.18353926 76.97502256 0.18938828 79.95577052 0.20731354 82.9366684 C0.22439239 86.26631169 0.2224889 89.59544038 0.21600342 92.92510986 C0.2252182 93.90510956 0.23443298 94.88510925 0.243927 95.89480591 C0.14094986 112.79553386 -11.73333499 118.54829996 -25.39825439 125.20733643 C-26.03647629 125.51865005 -26.67469818 125.82996368 -27.33226013 126.15071106 C-29.97394979 127.43496884 -32.61753912 128.71479269 -35.26885986 129.97906494 C-51.79168767 137.88014273 -59.56630392 144.05972966 -59.61700439 163.31671143 C-59.63135215 164.55593015 -59.64711578 165.7951332 -59.66421509 167.03431702 C-59.70588543 170.28633479 -59.73098087 173.53825559 -59.75170898 176.79046631 C-59.78761391 181.97577657 -59.84943274 187.16084424 -59.91019821 192.34591103 C-59.92891995 194.13583503 -59.94091494 195.92569544 -59.95162964 197.71568298 C-60.17218943 221.73754485 -64.35148022 229.72508074 -86.20864868 240.15765381 C-94.75865767 244.24299081 -103.18286402 248.35699917 -110.86798096 253.95880127 C-124.85213143 263.8425144 -140.90029396 249.69901721 -152.14044189 241.58624268 C-152.87649658 241.06932861 -153.61255127 240.55241455 -154.37091064 240.01983643 C-162.35893936 234.27984581 -166.25130306 229.94763129 -166.28088379 219.86862183 C-166.28385491 219.30182374 -166.28682603 218.73502566 -166.28988719 218.15105188 C-166.29854147 216.25654961 -166.30007964 214.36211078 -166.30157471 212.46759033 C-166.30620514 211.10729335 -166.3112301 209.74699767 -166.31661987 208.38670349 C-166.32972274 204.69450697 -166.3361845 201.00232861 -166.34063053 197.31011248 C-166.3435642 195.0024278 -166.34766952 192.69474807 -166.3521347 190.38706589 C-166.36580302 183.16398156 -166.37547338 175.94090854 -166.3793366 168.71781218 C-166.38381822 160.38482624 -166.40137368 152.05200426 -166.43033719 143.71906817 C-166.45196036 137.27393306 -166.46204119 130.82884407 -166.46337771 124.38367307 C-166.46442513 120.53591629 -166.47031962 116.68831378 -166.48819733 112.84059525 C-166.50468948 109.22082017 -166.50682812 105.60131516 -166.49805832 101.98151588 C-166.4972886 100.65527815 -166.5016222 99.32902583 -166.51151657 98.00282478 C-166.67117307 75.2644183 -147.55984731 67.46518871 -129.59454346 57.76983643 C-124.83076773 55.16915857 -120.35726687 52.46086012 -116.01544189 49.21124268 C-108.84578141 43.89370387 -100.71122846 40.20788677 -92.69073486 36.36602783 C-84.28234742 32.31589598 -76.5727186 27.61253862 -68.84747314 22.35577393 C-61.04591814 17.08103836 -52.87813514 12.87283482 -44.42282104 8.746521 C-36.50339672 4.87407501 -29.28994706 0.72532126 -22.14044189 -4.41375732 C-20.62860294 -5.40675499 -19.10854902 -6.38744032 -17.57794189 -7.35125732 C-16.97852783 -7.73153076 -16.37911377 -8.1118042 -15.76153564 -8.50360107 C-6.9941681 -13.42600261 -0.0385589 -10.16997059 0 0 Z " transform="translate(361.14044189453125,262.41375732421875)" style="fill: #04075B;"></path><path d="M0 0 C-0.12874142 2.20167826 -0.25555581 4.40346006 -0.38182211 6.60528159 C-3.02612143 52.69112111 -5.94474991 98.76125924 -8.83921148 144.83194419 C-9.48138344 155.054621 -10.11908214 165.27757173 -10.75492646 175.50064389 C-11.41847019 186.16824328 -12.08528302 196.83563406 -12.75545728 207.502819 C-13.12749514 213.42557793 -13.49819237 219.34841275 -13.86547232 225.27146888 C-14.20803549 230.79407247 -14.55482666 236.31639515 -14.90475225 241.83853698 C-15.03120624 243.84502584 -15.15621838 245.85160625 -15.27958059 247.85828757 C-15.86401483 257.35167106 -16.52143794 266.82568517 -17.53249121 276.28441405 C-17.6081132 277.01326271 -17.6837352 277.74211136 -17.76164877 278.49304634 C-19.36214438 292.62084107 -26.57566633 299.53211907 -37.7974143 307.4281671 C-38.57536352 307.98310851 -39.35331274 308.53804992 -40.15483618 309.10980773 C-46.52266042 313.63203359 -52.97080026 318.03562648 -59.43242407 322.42230773 C-64.93445177 326.1673144 -70.35308353 330.01268518 -75.7349143 333.9281671 C-81.88603472 338.40285784 -88.08976615 342.78111008 -94.37065649 347.07147765 C-106.71189003 355.50485625 -118.91423363 364.14071514 -131.12016821 372.768255 C-139.06580678 378.38167921 -147.03951916 383.95489844 -155.01225805 389.5297296 C-158.31005945 391.83666617 -161.60582846 394.14649712 -164.90166235 396.45624328 C-168.23474159 398.79095456 -171.57004892 401.12247378 -174.90532446 403.45404601 C-177.19569668 405.05701027 -179.48396499 406.66292905 -181.7715354 408.26988769 C-203.29809087 423.38402116 -272.01571587 464.40974837 -228.5474143 415.3031671 C-227.8152268 414.47043273 -227.0830393 413.63769835 -226.3286643 412.7797296 C-220.17002867 405.86275451 -213.81696602 399.12119111 -207.48149633 392.36664367 C-205.48921407 390.24107315 -203.50067535 388.11204058 -201.51225805 385.9828546 C-194.98971208 379.01176679 -188.4585677 372.06699043 -181.6152854 365.40790343 C-179.0260236 362.8688582 -176.605065 360.24384056 -174.23882055 357.49457335 C-169.71838793 352.27480648 -164.78724937 347.49398902 -159.86382055 342.65863585 C-155.81902358 338.65772456 -151.98586774 334.5663467 -148.27592993 330.25433898 C-144.76681911 326.29320711 -140.93170878 322.64861015 -137.15288305 318.94769835 C-134.01331538 315.84713152 -130.98847656 312.71137889 -128.1099143 309.3656671 C-123.64058787 304.18245501 -118.74355326 299.4510746 -113.86382055 294.65863585 C-109.80637437 290.64521259 -105.96145139 286.54024839 -102.2402854 282.21429992 C-99.51171643 279.1339368 -96.55782835 276.29627438 -93.6099143 273.4281671 C-81.40552826 261.33046841 -75.14096143 251.0955907 -71.90288305 233.97894835 C-71.65925343 232.73076942 -71.41475954 231.48275894 -71.16949987 230.23489928 C-70.49123068 226.7703836 -69.82546731 223.30356224 -69.16153479 219.83627486 C-68.42751137 216.01560014 -67.68141771 212.19727922 -66.93706274 208.37860656 C-64.99540147 198.40283349 -63.07354418 188.42327219 -61.15223455 178.44356322 C-60.08084202 172.88059316 -59.00771556 167.31795755 -57.93462133 161.75531554 C-57.82216353 161.17234206 -57.70970573 160.58936858 -57.59384012 159.98872924 C-56.89613073 156.37186119 -56.19837146 152.75500277 -55.50058794 149.13814902 C-55.14396391 147.28961843 -54.78735668 145.4410846 -54.43075323 143.59255004 C-52.8440373 135.36754969 -51.2569308 127.14262478 -49.66938066 118.91778541 C-49.42133275 117.63267546 -49.17329415 116.34756371 -48.92526484 115.06245017 C-42.2646968 80.55223717 -35.59382152 46.04412392 -28.74260473 11.57114196 C-28.00114698 7.84018006 -27.26310991 4.10857151 -26.5284934 0.3762567 C-23.11263034 -16.9635283 -19.57319188 -34.25446609 -15.35600805 -51.41948915 C-15.12110002 -52.39237288 -15.12110002 -52.39237288 -14.88144636 -53.38491082 C0.83689782 -118.061889 1.32103446 -22.501636 0 0 Z " transform="translate(868.5474143028259,556.6968328952789)" style="fill: #080FA0;"></path><path d="M0 0 C0.57686932 3.17278123 1.11889832 5.29578478 2.625 8.1875 C4.37329606 11.83611787 4.50860183 14.91301217 4.65625 18.91796875 C4.83607137 21.26237001 4.83607137 21.26237001 6.56640625 22.5390625 C8.9016196 25.11206519 8.4648401 28.06835286 8.5 31.375 C8.68568783 36.83435172 9.29818794 40.37655205 12.21875 45.0703125 C13.80075678 49.03997767 13.17231677 53.43043167 12.91015625 57.625 C12.6643358 60.68661872 12.6643358 60.68661872 16.0625 60.1875 C16.82868099 62.20836639 16.82868099 62.20836639 17.38963318 65.10632324 C17.60882195 66.20110206 17.82801073 67.29588087 18.05384159 68.4238348 C18.28542256 69.65685658 18.51673335 70.88992912 18.74780273 72.12304688 C19.00065631 73.41465116 19.25477744 74.70600785 19.51006985 75.9971323 C20.20832964 79.54795476 20.88845725 83.10204801 21.56570005 86.65693021 C22.29068717 90.44585156 23.03204487 94.23156872 23.77151489 98.01768494 C25.03819672 104.51518662 26.29429803 111.0146612 27.54324341 117.51559448 C29.33111356 126.82153862 31.13596495 136.12412545 32.94480932 145.4260124 C38.87410146 175.92377094 44.73564124 206.43456691 50.56934166 236.95074081 C51.16198645 240.05068909 51.75517559 243.15053286 52.34859985 246.250332 C52.91690025 249.21893801 53.48496563 252.18758897 54.05297852 255.15625 C54.16217483 255.72686779 54.27137115 256.29748558 54.38387644 256.88539481 C55.75653414 264.05993265 57.12003452 271.2361319 58.47439575 278.41414547 C59.23947714 282.4629065 60.0101863 286.51058312 60.78210068 290.55804634 C61.13020592 292.39077393 61.47575543 294.22398938 61.81836319 296.05775261 C64.98123306 312.98158477 67.76580639 327.73136013 80.83984375 339.97265625 C82.77267111 341.89868984 84.53780702 343.86755432 86.31640625 345.93359375 C90.03751973 350.22550629 94.00895969 354.21161372 98.0625 358.1875 C102.01067913 362.06004352 105.89374359 365.92877998 109.5 370.125 C113.45524898 374.7170351 117.74307656 378.94055011 122.0625 383.1875 C127.03253766 388.07414777 131.8393861 392.99845042 136.3828125 398.28515625 C139.13169518 401.3984257 142.09604381 404.28346958 145.0625 407.1875 C149.27487733 411.35150343 153.33511592 415.54059518 157.16015625 420.06640625 C160.34561649 423.61816171 163.7702365 426.93630752 167.18188477 430.26977539 C170.07264285 433.11464142 172.821238 436.01999457 175.46875 439.09375 C179.13432066 443.33574484 183.0618671 447.26350758 187.0625 451.1875 C191.75241063 455.7875656 196.24705832 460.45902803 200.53515625 465.4375 C202.29161004 467.45000971 204.14116605 469.33241895 206.0625 471.1875 C209.25330464 474.33551607 212.23224724 477.59387178 215.1484375 480.99609375 C216.56815732 482.62152807 218.00319127 484.20983556 219.4765625 485.78515625 C250.28880039 518.79533768 226.23449501 516.30198008 199.09179688 497.58544922 C196.96808055 496.122456 194.83644445 494.67160607 192.703125 493.22265625 C176.47177807 482.18146502 160.3619019 470.95837131 144.33666992 459.62036133 C136.44883981 454.04047626 128.52895444 448.50651015 120.61083984 442.96972656 C115.59589256 439.46243444 110.58305142 435.95213287 105.56982422 432.44238281 C101.36626353 429.4996436 97.16217859 426.55765906 92.95703125 423.6171875 C84.45656065 417.67207309 75.9655172 411.71430536 67.49536133 405.72607422 C62.02897144 401.86376345 56.54739706 398.02346976 51.0625 394.1875 C49.38019182 393.00913816 47.69790003 391.83075291 46.015625 390.65234375 C42.78104309 388.38724988 39.54101458 386.13028527 36.296875 383.87890625 C12.08501103 367.03170026 9.29626869 354.00709252 7.52197266 325.35131836 C7.38090301 323.14611048 7.23930193 320.94093655 7.09721375 318.73579407 C6.75320379 313.37448098 6.41491036 308.01283377 6.07933308 302.65098708 C5.68341349 296.32876009 5.28102678 290.0069492 4.87851052 283.68513937 C4.15476242 272.31442147 3.43706077 260.94332989 2.72265625 249.57202148 C2.04086197 238.7198299 1.3545533 227.867937 0.66308594 217.01635742 C-5.81843037 115.27927494 -5.81843037 115.27927494 -8.28658342 70.13246465 C-8.4107282 67.87698433 -8.53748828 65.62166624 -8.66505051 63.36637688 C-9.4649203 49.15905211 -10.07460796 34.98191272 -10.09130859 20.74975586 C-10.09347193 19.60763169 -10.09563526 18.46550753 -10.09786415 17.28877354 C-10.06362975 10.00349321 -3.61574341 -22.41760912 0 0 Z " transform="translate(112.9375,484.8125)" style="fill: #080F9F;"></path><path d="M0 0 C1.36161255 0.65790527 1.36161255 0.65790527 2.75073242 1.32910156 C11.11593934 5.50402515 18.66761961 10.58318252 26.09204102 16.24072266 C27.44515869 17.26677197 28.81174158 18.27517227 30.18725586 19.27099609 C30.90405518 19.79258301 31.62085449 20.31416992 32.359375 20.8515625 C33.0100293 21.32029785 33.66068359 21.7890332 34.33105469 22.27197266 C38.88880095 26.13765622 40.10581832 32.10166299 40.16113281 37.85424805 C40.17074036 38.66576828 40.1803479 39.47728851 40.19024658 40.31340027 C40.19449646 41.18322037 40.19874634 42.05304047 40.203125 42.94921875 C40.20882507 43.85444778 40.21452515 44.75967682 40.22039795 45.69233704 C40.22983573 47.60794918 40.23637708 49.52357747 40.24023438 51.43920898 C40.24990732 54.34713701 40.28092875 57.25434808 40.3125 60.16210938 C40.31903401 62.02864166 40.32428292 63.89517898 40.328125 65.76171875 C40.3404718 66.62141769 40.3528186 67.48111664 40.36553955 68.36686707 C40.28975338 89.25803619 25.59043367 97.25693095 8.7578125 105.5144043 C6.73482427 106.50744947 4.71868498 107.51346049 2.703125 108.52148438 C1.40141868 109.16742698 0.09934803 109.81263602 -1.203125 110.45703125 C-2.09393768 110.90076836 -2.09393768 110.90076836 -3.00274658 111.35346985 C-15.32392407 117.37563926 -21.97704989 115.16998021 -33.9375 109.1875 C-35.04623035 108.64257936 -36.15528323 108.09831452 -37.26464844 107.5546875 C-43.79688701 104.34022413 -50.29627334 101.0568049 -56.75 97.6875 C-57.421521 97.33880859 -58.09304199 96.99011719 -58.78491211 96.63085938 C-71.03608947 90.10027965 -73.15015695 81.85618555 -73.16796875 68.44921875 C-73.17129715 67.56901566 -73.17462555 66.68881256 -73.17805481 65.78193665 C-73.18310086 63.92534912 -73.18546386 62.06875258 -73.18530273 60.2121582 C-73.18748487 57.39453934 -73.20565338 54.57731513 -73.22460938 51.75976562 C-73.22754478 49.94791799 -73.22952859 48.13606852 -73.23046875 46.32421875 C-73.23765427 45.49266769 -73.24483978 44.66111664 -73.25224304 43.80436707 C-73.19634655 29.2552695 -69.66333856 22.58029925 -57 15.6875 C-54.32948199 14.21521965 -51.66377523 12.73444136 -49 11.25 C-48.3080957 10.86585938 -47.61619141 10.48171875 -46.90332031 10.0859375 C-42.09227474 7.38499964 -37.645776 4.43195194 -33.1796875 1.19140625 C-21.56187115 -6.82447062 -12.42081068 -6.09687491 0 0 Z " transform="translate(504,180.3125)" style="fill: #080FA0;"></path></svg><style>@media (prefers-color-scheme: light) { :root { filter: none; } }
@media (prefers-color-scheme: dark) { :root { filter: contrast(0.3846153846153846) brightness(4.5); } }
</style></svg>